<svg width="18" height="18" viewBox="0 0 18 18" fill="none" xmlns="http://www.w3.org/2000/svg">
<path d="M2.52415 0.980957C1.96737 0.980957 1.43339 1.20214 1.03969 1.59584C0.645985 1.98954 0.424805 2.52352 0.424805 3.0803L0.424805 11.4777C0.424805 12.0345 0.645985 12.5684 1.03969 12.9621C1.43339 13.3558 1.96737 13.577 2.52415 13.577H5.14833C5.31129 13.577 5.472 13.615 5.61776 13.6878C5.76351 13.7607 5.89029 13.8665 5.98807 13.9969L7.98244 16.6557C8.08022 16.7861 8.207 16.8919 8.35275 16.9648C8.49851 17.0376 8.65922 17.0756 8.82218 17.0756C8.98514 17.0756 9.14585 17.0376 9.29161 16.9648C9.43736 16.8919 9.56415 16.7861 9.66192 16.6557L11.6563 13.9969C11.7541 13.8665 11.8809 13.7607 12.0266 13.6878C12.1724 13.615 12.3331 13.577 12.496 13.577H15.1202C15.677 13.577 16.211 13.3558 16.6047 12.9621C16.9984 12.5684 17.2196 12.0345 17.2196 11.4777V3.0803C17.2196 2.52352 16.9984 1.98954 16.6047 1.59584C16.211 1.20214 15.677 0.980957 15.1202 0.980957L2.52415 0.980957Z" fill="#E5E5E5"/>
</svg>
