<svg width="13" height="20" viewBox="0 0 13 20" fill="none" xmlns="http://www.w3.org/2000/svg">
<path fill-rule="evenodd" clip-rule="evenodd" d="M4.1399 1.31787C3.47913 1.97864 3.10791 2.87484 3.10791 3.80931V9.68167C3.10791 10.6161 3.47913 11.5123 4.1399 12.1731C4.80066 12.8339 5.69686 13.2051 6.63133 13.2051C7.5658 13.2051 8.46199 12.8339 9.12276 12.1731C9.78353 11.5123 10.1547 10.6161 10.1547 9.68167V3.80931C10.1547 2.87484 9.78353 1.97864 9.12276 1.31787C8.46199 0.657105 7.5658 0.285889 6.63133 0.285889C5.69686 0.285889 4.80066 0.657105 4.1399 1.31787ZM1.76126 8.09186C1.65114 7.98173 1.50177 7.91986 1.34603 7.91986C1.19028 7.91986 1.04091 7.98173 0.930787 8.09186C0.820659 8.20199 0.758789 8.35135 0.758789 8.5071V9.68157C0.758771 11.1374 1.2995 12.5413 2.27607 13.6209C3.25263 14.7006 4.59542 15.379 6.04392 15.5246V17.9029H2.5205C2.36475 17.9029 2.21539 17.9647 2.10526 18.0749C1.99513 18.185 1.93326 18.3344 1.93326 18.4901C1.93326 18.6459 1.99513 18.7952 2.10526 18.9054C2.21539 19.0155 2.36475 19.0773 2.5205 19.0773H10.7418C10.8975 19.0773 11.0469 19.0155 11.157 18.9054C11.2672 18.7952 11.329 18.6459 11.329 18.4901C11.329 18.3344 11.2672 18.185 11.157 18.0749C11.0469 17.9647 10.8975 17.9029 10.7418 17.9029H7.21839V15.5246C8.66688 15.379 10.0097 14.7006 10.9862 13.6209C11.9628 12.5413 12.5035 11.1374 12.5035 9.68157V8.5071C12.5035 8.35135 12.4416 8.20199 12.3315 8.09186C12.2214 7.98173 12.072 7.91986 11.9163 7.91986C11.7605 7.91986 11.6112 7.98173 11.501 8.09186C11.3909 8.20199 11.329 8.35135 11.329 8.5071V9.68157C11.329 10.9275 10.8341 12.1225 9.95306 13.0035C9.07204 13.8845 7.87711 14.3795 6.63115 14.3795C5.38519 14.3795 4.19027 13.8845 3.30924 13.0035C2.42822 12.1225 1.93326 10.9275 1.93326 9.68157V8.5071C1.93326 8.35135 1.87139 8.20199 1.76126 8.09186Z" fill="#E5E5E5"/>
</svg>
