<svg width="21" height="16" viewBox="0 0 21 16" fill="none" xmlns="http://www.w3.org/2000/svg">
<path fill-rule="evenodd" clip-rule="evenodd" d="M9.66564 15.8581C9.66564 15.8581 8.41504 15.8581 8.41504 14.6075C8.41504 13.3569 9.66564 9.60512 14.668 9.60512C19.6704 9.60512 20.921 13.3569 20.921 14.6075C20.921 15.8581 19.6704 15.8581 19.6704 15.8581H9.66564ZM14.668 8.35453C15.6631 8.35453 16.6173 7.95925 17.3209 7.25565C18.0245 6.55206 18.4198 5.59777 18.4198 4.60274C18.4198 3.6077 18.0245 2.65342 17.3209 1.94983C16.6173 1.24623 15.6631 0.850952 14.668 0.850952C13.673 0.850952 12.7187 1.24623 12.0151 1.94983C11.3115 2.65342 10.9162 3.6077 10.9162 4.60274C10.9162 5.59777 11.3115 6.55206 12.0151 7.25565C12.7187 7.95925 13.673 8.35453 14.668 8.35453ZM7.43473 15.8581C7.24933 15.4676 7.15687 15.0396 7.1646 14.6075C7.1646 12.9129 8.015 11.1683 9.58575 9.95525C8.80174 9.71368 7.98493 9.59555 7.1646 9.60509C2.16222 9.60509 0.911621 13.3569 0.911621 14.6075C0.911621 15.8581 2.16222 15.8581 2.16222 15.8581H7.43473ZM8.74985 7.43881C8.16352 8.02514 7.36828 8.35454 6.53909 8.35454C5.70989 8.35454 4.91466 8.02514 4.32833 7.43881C3.74199 6.85248 3.4126 6.05725 3.4126 5.22805C3.4126 4.39886 3.74199 3.60362 4.32833 3.01729C4.91466 2.43096 5.70989 2.10156 6.53909 2.10156C7.36828 2.10156 8.16352 2.43096 8.74985 3.01729C9.33618 3.60362 9.66558 4.39886 9.66558 5.22805C9.66558 6.05725 9.33618 6.85248 8.74985 7.43881Z" fill="#E5E5E5"/>
</svg>
