<svg width="22" height="18" viewBox="0 0 22 18" fill="none" xmlns="http://www.w3.org/2000/svg">
<path d="M3.28693 0.980839C2.97847 0.980839 2.67302 1.0416 2.38803 1.15964C2.10304 1.27769 1.8441 1.45071 1.62598 1.66883C1.40786 1.88695 1.23484 2.14589 1.11679 2.43088C0.998746 2.71587 0.937988 3.02132 0.937988 3.32978V15.3355C0.937988 15.9585 1.18547 16.5559 1.62598 16.9965C2.06649 17.437 2.66395 17.6844 3.28693 17.6844H19.4686C20.0915 17.6844 20.689 17.437 21.1295 16.9965C21.57 16.5559 21.8175 15.9585 21.8175 15.3355V3.32978C21.8175 3.02132 21.7567 2.71587 21.6387 2.43088C21.5206 2.14589 21.3476 1.88695 21.1295 1.66883C20.9114 1.45071 20.6524 1.27769 20.3675 1.15964C20.0825 1.0416 19.777 0.980839 19.4686 0.980839H3.28693ZM11.931 4.59821L15.3292 7.99636C15.4061 8.06804 15.4678 8.15448 15.5106 8.25052C15.5534 8.34657 15.5764 8.45025 15.5783 8.55538C15.5801 8.66051 15.5608 8.76494 15.5214 8.86243C15.482 8.95993 15.4234 9.04849 15.3491 9.12284C15.2747 9.19719 15.1862 9.25581 15.0887 9.29519C14.9912 9.33457 14.8867 9.35391 14.7816 9.35205C14.6765 9.3502 14.5728 9.32719 14.4767 9.28439C14.3807 9.2416 14.2943 9.1799 14.2226 9.10297L12.1607 7.04216V13.7727C12.1607 13.9803 12.0782 14.1795 11.9314 14.3263C11.7846 14.4732 11.5854 14.5557 11.3777 14.5557C11.1701 14.5557 10.9709 14.4732 10.8241 14.3263C10.6773 14.1795 10.5948 13.9803 10.5948 13.7727V7.04425L8.53813 9.10297C8.46645 9.1799 8.38001 9.2416 8.28396 9.28439C8.18792 9.32719 8.08424 9.3502 7.9791 9.35205C7.87397 9.35391 7.76954 9.33457 7.67205 9.29519C7.57456 9.25581 7.48599 9.19719 7.41164 9.12284C7.33729 9.04849 7.27868 8.95993 7.2393 8.86243C7.19992 8.76494 7.18058 8.66051 7.18243 8.55538C7.18429 8.45025 7.2073 8.34657 7.25009 8.25052C7.29289 8.15448 7.35459 8.06804 7.43152 7.99636L10.8244 4.59821C10.9712 4.45159 11.1703 4.36923 11.3777 4.36923C11.5852 4.36923 11.7842 4.45159 11.931 4.59821Z" fill="#00B17B"/>
</svg>
