{
    "asset" : {
        "generator" : "Khronos glTF Blender I/O v1.7.33",
        "version" : "2.0"
    },
    "scene" : 0,
    "scenes" : [
        {
            "name" : "Scene",
            "nodes" : [
                1,
                2,
                3,
                4,
                5
            ]
        }
    ],
    "nodes" : [
        {
            "mesh" : 0,
            "name" : "screen",
            "translation" : [
                -1.5814660787582397,
                9.206509590148926,
                -0.1001066192984581
            ]
        },
        {
            "children" : [
                0
            ],
            "name" : "screenflip"
        },
        {
            "mesh" : 1,
            "name" : "keyboard",
            "translation" : [
                -1.2562530040740967,
                1.9006407260894775,
                5.859609603881836
            ]
        },
        {
            "mesh" : 2,
            "name" : "base",
            "translation" : [
                -1.3525274991989136,
                1.8484543561935425,
                10.430996894836426
            ]
        },
        {
            "mesh" : 3,
            "name" : "touchbar",
            "translation" : [
                -1.422439694404602,
                1.8082222938537598,
                2.2782158851623535
            ]
        },
        {
            "mesh" : 4,
            "name" : "Cube"
        }
    ],
    "materials" : [
        {
            "doubleSided" : true,
            "name" : "aluminium",
            "pbrMetallicRoughness" : {
                "baseColorFactor" : [
                    0.6053217649459839,
                    0.6053217649459839,
                    0.6053217649459839,
                    1
                ],
                "roughnessFactor" : 0.5
            }
        },
        {
            "doubleSided" : true,
            "name" : "matte.001",
            "pbrMetallicRoughness" : {
                "baseColorFactor" : [
                    0,
                    0,
                    0,
                    1
                ],
                "metallicFactor" : 0,
                "roughnessFactor" : 0.5
            }
        },
        {
            "doubleSided" : true,
            "name" : "screen.001",
            "pbrMetallicRoughness" : {
                "baseColorTexture" : {
                    "index" : 0
                },
                "metallicFactor" : 0,
                "roughnessFactor" : 0.09999999403953552
            }
        },
        {
            "doubleSided" : true,
            "name" : "keys",
            "pbrMetallicRoughness" : {
                "baseColorFactor" : [
                    0,
                    0,
                    0,
                    1
                ],
                "metallicFactor" : 0.6766917705535889,
                "roughnessFactor" : 0.8270676732063293
            }
        },
        {
            "doubleSided" : true,
            "name" : "trackpad",
            "pbrMetallicRoughness" : {
                "baseColorFactor" : [
                    0.3290732800960541,
                    0.3290732800960541,
                    0.3290732800960541,
                    1
                ],
                "roughnessFactor" : 0.6613636016845703
            }
        },
        {
            "doubleSided" : true,
            "name" : "touchbar",
            "pbrMetallicRoughness" : {
                "baseColorFactor" : [
                    0,
                    0,
                    0,
                    1
                ],
                "metallicFactor" : 0,
                "roughnessFactor" : 0.18409091234207153
            }
        },
        {
            "doubleSided" : true,
            "name" : "Material",
            "pbrMetallicRoughness" : {
                "baseColorFactor" : [
                    0.800000011920929,
                    0.800000011920929,
                    0.800000011920929,
                    1
                ],
                "metallicFactor" : 0,
                "roughnessFactor" : 0.4000000059604645
            }
        }
    ],
    "meshes" : [
        {
            "name" : "Cube.008",
            "primitives" : [
                {
                    "attributes" : {
                        "POSITION" : 0,
                        "NORMAL" : 1,
                        "TEXCOORD_0" : 2
                    },
                    "indices" : 3,
                    "material" : 0
                },
                {
                    "attributes" : {
                        "POSITION" : 4,
                        "NORMAL" : 5,
                        "TEXCOORD_0" : 6
                    },
                    "indices" : 7,
                    "material" : 1
                },
                {
                    "attributes" : {
                        "POSITION" : 8,
                        "NORMAL" : 9,
                        "TEXCOORD_0" : 10
                    },
                    "indices" : 11,
                    "material" : 2
                }
            ]
        },
        {
            "name" : "Cube.001",
            "primitives" : [
                {
                    "attributes" : {
                        "POSITION" : 12,
                        "NORMAL" : 13,
                        "TEXCOORD_0" : 14,
                        "TEXCOORD_1" : 15
                    },
                    "indices" : 16,
                    "material" : 3
                }
            ]
        },
        {
            "name" : "Cube.002",
            "primitives" : [
                {
                    "attributes" : {
                        "POSITION" : 17,
                        "NORMAL" : 18,
                        "TEXCOORD_0" : 19
                    },
                    "indices" : 20,
                    "material" : 0
                },
                {
                    "attributes" : {
                        "POSITION" : 21,
                        "NORMAL" : 22,
                        "TEXCOORD_0" : 23
                    },
                    "indices" : 24,
                    "material" : 4
                }
            ]
        },
        {
            "name" : "Cube.011",
            "primitives" : [
                {
                    "attributes" : {
                        "POSITION" : 25,
                        "NORMAL" : 26,
                        "TEXCOORD_0" : 27
                    },
                    "indices" : 28,
                    "material" : 5
                }
            ]
        },
        {
            "name" : "Cube",
            "primitives" : [
                {
                    "attributes" : {
                        "POSITION" : 29,
                        "NORMAL" : 30,
                        "TEXCOORD_0" : 31
                    },
                    "indices" : 32,
                    "material" : 6
                }
            ]
        }
    ],
    "textures" : [
        {
            "sampler" : 0,
            "source" : 0
        }
    ],
    "images" : [
        {
            "bufferView" : 12,
            "mimeType" : "image/jpeg",
            "name" : "Ewt6oIKWQAAia0d"
        }
    ],
    "accessors" : [
        {
            "bufferView" : 0,
            "componentType" : 5126,
            "count" : 579,
            "max" : [
                12.554997444152832,
                9.434618949890137,
                0.20187050104141235
            ],
            "min" : [
                -12.223097801208496,
                -7.596690654754639,
                -0.3838135600090027
            ],
            "type" : "VEC3"
        },
        {
            "bufferView" : 1,
            "componentType" : 5126,
            "count" : 579,
            "type" : "VEC3"
        },
        {
            "bufferView" : 2,
            "componentType" : 5126,
            "count" : 579,
            "type" : "VEC2"
        },
        {
            "bufferView" : 3,
            "componentType" : 5123,
            "count" : 1023,
            "type" : "SCALAR"
        },
        {
            "bufferView" : 4,
            "componentType" : 5126,
            "count" : 198,
            "max" : [
                12.476967811584473,
                9.35476016998291,
                0.205855131149292
            ],
            "min" : [
                -12.145068168640137,
                -7.558814525604248,
                -0.0967298075556755
            ],
            "type" : "VEC3"
        },
        {
            "bufferView" : 5,
            "componentType" : 5126,
            "count" : 198,
            "type" : "VEC3"
        },
        {
            "bufferView" : 6,
            "componentType" : 5126,
            "count" : 198,
            "type" : "VEC2"
        },
        {
            "bufferView" : 7,
            "componentType" : 5123,
            "count" : 240,
            "type" : "SCALAR"
        },
        {
            "bufferView" : 8,
            "componentType" : 5126,
            "count" : 6,
            "max" : [
                11.848244667053223,
                8.726094245910645,
                0.13801655173301697
            ],
            "min" : [
                -11.516339302062988,
                -6.395966529846191,
                -0.08001384884119034
            ],
            "type" : "VEC3"
        },
        {
            "bufferView" : 9,
            "componentType" : 5126,
            "count" : 6,
            "type" : "VEC3"
        },
        {
            "bufferView" : 10,
            "componentType" : 5126,
            "count" : 6,
            "type" : "VEC2"
        },
        {
            "bufferView" : 11,
            "componentType" : 5123,
            "count" : 6,
            "type" : "SCALAR"
        },
        {
            "bufferView" : 13,
            "componentType" : 5126,
            "count" : 3527,
            "max" : [
                9.531271934509277,
                0.08200645446777344,
                3.3362464904785156
            ],
            "min" : [
                -9.85378360748291,
                -0.10739314556121826,
                -3.055992841720581
            ],
            "type" : "VEC3"
        },
        {
            "bufferView" : 14,
            "componentType" : 5126,
            "count" : 3527,
            "type" : "VEC3"
        },
        {
            "bufferView" : 15,
            "componentType" : 5126,
            "count" : 3527,
            "type" : "VEC2"
        },
        {
            "bufferView" : 16,
            "componentType" : 5126,
            "count" : 3527,
            "type" : "VEC2"
        },
        {
            "bufferView" : 17,
            "componentType" : 5123,
            "count" : 6498,
            "type" : "SCALAR"
        },
        {
            "bufferView" : 18,
            "componentType" : 5126,
            "count" : 1038,
            "max" : [
                12.319068908691406,
                0.09828424453735352,
                6.534693717956543
            ],
            "min" : [
                -12.459023475646973,
                -0.5553634166717529,
                -10.496459007263184
            ],
            "type" : "VEC3"
        },
        {
            "bufferView" : 19,
            "componentType" : 5126,
            "count" : 1038,
            "type" : "VEC3"
        },
        {
            "bufferView" : 20,
            "componentType" : 5126,
            "count" : 1038,
            "type" : "VEC2"
        },
        {
            "bufferView" : 21,
            "componentType" : 5123,
            "count" : 1944,
            "type" : "SCALAR"
        },
        {
            "bufferView" : 22,
            "componentType" : 5126,
            "count" : 79,
            "max" : [
                5.5965094566345215,
                0.06755971908569336,
                6.157288551330566
            ],
            "min" : [
                -5.736466407775879,
                0.06755971908569336,
                -0.8240928649902344
            ],
            "type" : "VEC3"
        },
        {
            "bufferView" : 23,
            "componentType" : 5126,
            "count" : 79,
            "type" : "VEC3"
        },
        {
            "bufferView" : 24,
            "componentType" : 5126,
            "count" : 79,
            "type" : "VEC2"
        },
        {
            "bufferView" : 25,
            "componentType" : 5123,
            "count" : 126,
            "type" : "SCALAR"
        },
        {
            "bufferView" : 26,
            "componentType" : 5126,
            "count" : 65,
            "max" : [
                9.691606521606445,
                0.08048605918884277,
                0.3814697265625
            ],
            "min" : [
                -9.691609382629395,
                -0.08048832416534424,
                -0.38552677631378174
            ],
            "type" : "VEC3"
        },
        {
            "bufferView" : 27,
            "componentType" : 5126,
            "count" : 65,
            "type" : "VEC3"
        },
        {
            "bufferView" : 28,
            "componentType" : 5126,
            "count" : 65,
            "type" : "VEC2"
        },
        {
            "bufferView" : 29,
            "componentType" : 5123,
            "count" : 132,
            "type" : "SCALAR"
        },
        {
            "bufferView" : 30,
            "componentType" : 5126,
            "count" : 24,
            "max" : [
                1,
                1,
                1
            ],
            "min" : [
                -1,
                -1,
                -1
            ],
            "type" : "VEC3"
        },
        {
            "bufferView" : 31,
            "componentType" : 5126,
            "count" : 24,
            "type" : "VEC3"
        },
        {
            "bufferView" : 32,
            "componentType" : 5126,
            "count" : 24,
            "type" : "VEC2"
        },
        {
            "bufferView" : 33,
            "componentType" : 5123,
            "count" : 36,
            "type" : "SCALAR"
        }
    ],
    "bufferViews" : [
        {
            "buffer" : 0,
            "byteLength" : 6948,
            "byteOffset" : 0
        },
        {
            "buffer" : 0,
            "byteLength" : 6948,
            "byteOffset" : 6948
        },
        {
            "buffer" : 0,
            "byteLength" : 4632,
            "byteOffset" : 13896
        },
        {
            "buffer" : 0,
            "byteLength" : 2046,
            "byteOffset" : 18528
        },
        {
            "buffer" : 0,
            "byteLength" : 2376,
            "byteOffset" : 20576
        },
        {
            "buffer" : 0,
            "byteLength" : 2376,
            "byteOffset" : 22952
        },
        {
            "buffer" : 0,
            "byteLength" : 1584,
            "byteOffset" : 25328
        },
        {
            "buffer" : 0,
            "byteLength" : 480,
            "byteOffset" : 26912
        },
        {
            "buffer" : 0,
            "byteLength" : 72,
            "byteOffset" : 27392
        },
        {
            "buffer" : 0,
            "byteLength" : 72,
            "byteOffset" : 27464
        },
        {
            "buffer" : 0,
            "byteLength" : 48,
            "byteOffset" : 27536
        },
        {
            "buffer" : 0,
            "byteLength" : 12,
            "byteOffset" : 27584
        },
        {
            "buffer" : 0,
            "byteLength" : 389562,
            "byteOffset" : 27596
        },
        {
            "buffer" : 0,
            "byteLength" : 42324,
            "byteOffset" : 417160
        },
        {
            "buffer" : 0,
            "byteLength" : 42324,
            "byteOffset" : 459484
        },
        {
            "buffer" : 0,
            "byteLength" : 28216,
            "byteOffset" : 501808
        },
        {
            "buffer" : 0,
            "byteLength" : 28216,
            "byteOffset" : 530024
        },
        {
            "buffer" : 0,
            "byteLength" : 12996,
            "byteOffset" : 558240
        },
        {
            "buffer" : 0,
            "byteLength" : 12456,
            "byteOffset" : 571236
        },
        {
            "buffer" : 0,
            "byteLength" : 12456,
            "byteOffset" : 583692
        },
        {
            "buffer" : 0,
            "byteLength" : 8304,
            "byteOffset" : 596148
        },
        {
            "buffer" : 0,
            "byteLength" : 3888,
            "byteOffset" : 604452
        },
        {
            "buffer" : 0,
            "byteLength" : 948,
            "byteOffset" : 608340
        },
        {
            "buffer" : 0,
            "byteLength" : 948,
            "byteOffset" : 609288
        },
        {
            "buffer" : 0,
            "byteLength" : 632,
            "byteOffset" : 610236
        },
        {
            "buffer" : 0,
            "byteLength" : 252,
            "byteOffset" : 610868
        },
        {
            "buffer" : 0,
            "byteLength" : 780,
            "byteOffset" : 611120
        },
        {
            "buffer" : 0,
            "byteLength" : 780,
            "byteOffset" : 611900
        },
        {
            "buffer" : 0,
            "byteLength" : 520,
            "byteOffset" : 612680
        },
        {
            "buffer" : 0,
            "byteLength" : 264,
            "byteOffset" : 613200
        },
        {
            "buffer" : 0,
            "byteLength" : 288,
            "byteOffset" : 613464
        },
        {
            "buffer" : 0,
            "byteLength" : 288,
            "byteOffset" : 613752
        },
        {
            "buffer" : 0,
            "byteLength" : 192,
            "byteOffset" : 614040
        },
        {
            "buffer" : 0,
            "byteLength" : 72,
            "byteOffset" : 614232
        }
    ],
    "samplers" : [
        {
            "magFilter" : 9729,
            "minFilter" : 9987
        }
    ],
    "buffers" : [
        {
            "byteLength" : 614304,
            "uri" : "data:application/octet-stream;base64,"
        }
    ]
}
