<svg width="55" height="58" viewBox="0 0 55 58" fill="current" xmlns="http://www.w3.org/2000/svg">
<path d="M22.0004 1.00533C22.3583 1.43532 22.5776 1.96155 22.6299 2.51602C22.6822 3.07049 22.5651 3.62772 22.2937 4.11571C20.1738 7.96372 19.0668 12.277 19.0743 16.6587C19.0743 31.2355 31.0939 43.039 45.9075 43.039C47.8398 43.039 49.7209 42.8396 51.5286 42.4589C52.0827 42.3403 52.6599 42.3857 53.1881 42.5894C53.7163 42.7931 54.1721 43.1462 54.4986 43.6045C54.8432 44.081 55.0189 44.6568 54.9984 45.2422C54.9778 45.8277 54.7622 46.39 54.3849 46.8417C51.5091 50.3343 47.8811 53.1484 43.7655 55.0788C39.6499 57.0091 35.1504 58.0071 30.5952 58C13.6916 58 0 44.5361 0 27.9475C0 15.4624 7.75147 4.75374 18.7883 0.215051C19.3381 -0.0146681 19.9484 -0.0618169 20.5276 0.0806872C21.1068 0.223191 21.6236 0.547653 22.0004 1.00533ZM17.813 4.75011C13.5691 7.00071 10.0213 10.3461 7.54661 14.4306C5.07191 18.5151 3.7628 23.1862 3.7584 27.9475C3.7584 42.5206 15.7816 54.3241 30.5952 54.3241C34.1425 54.3301 37.6559 53.6406 40.9319 52.2952C44.2079 50.9499 47.1815 48.9756 49.6805 46.4865C48.4448 46.6387 47.1871 46.7149 45.9075 46.7149C29.0038 46.7149 15.3159 33.2511 15.3159 16.6624C15.3159 12.4318 16.2033 8.40427 17.813 4.75011Z" fill="white"/>
</svg>
